<svg aria-hidden="true" style="position:absolute;width:0;height:0" xmlns="http://www.w3.org/2000/svg" overflow="hidden"><defs><symbol id="icon-arrow" viewBox="0 0 23 32"><path d="M11.428 0a1.14 1.14 0 00-1.143 1.143v26.956l-7.191-7.193a1.144 1.144 0 10-1.618 1.618l9.143 9.143a1.135 1.135 0 00.809.335 1.156 1.156 0 00.809-.335l9.143-9.143a1.135 1.135 0 00.335-.809 1.146 1.146 0 00-1.144-1.144c-.303 0-.595.121-.809.335l-7.191 7.193V1.143A1.14 1.14 0 0011.428 0z"/></symbol><symbol id="icon-company-1" viewBox="0 0 46 32"><path fill="var(--color1, #979797)" d="M45.427 31.461v-1.964C30.002 27.786 18.001 15.208 17.875-.032h-1.948c.157 16.317 13.006 29.782 29.499 31.493z"/><path fill="var(--color1, #979797)" d="M17.907-.032h-1.948c-.063 4.531-1.948 8.808-5.309 12.103-2.922 2.82-6.629 4.594-10.681 5.228v1.964a21.075 21.075 0 0012.001-5.735c3.739-3.675 5.875-8.459 5.938-13.56z"/><path fill="var(--color1, #979797)" d="M23.342-.032h-1.948c-.126 6.368-2.67 12.293-7.383 16.887-3.801 3.707-8.734 6.178-14.043 7.065v2.028c5.812-.887 11.184-3.517 15.362-7.636 5.121-4.974 7.885-11.469 8.011-18.345z"/><path fill="var(--color1, #979797)" d="M29.751 17.933c4.304 3.897 9.739 6.432 15.677 7.255V23.16c-5.435-.824-10.43-3.137-14.357-6.749-4.807-4.404-7.446-10.202-7.508-16.444h-1.948c.094 6.812 2.953 13.18 8.137 17.964z"/><path fill="var(--color1, #979797)" d="M45.427 18.82v-1.964c-4.053-.507-7.822-2.281-10.744-5.101-3.236-3.2-5.058-7.382-5.121-11.786h-1.916c.063 4.974 2.136 9.632 5.812 13.18 3.173 3.2 7.414 5.164 11.969 5.671z"/><path fill="var(--color1, #979797)" d="M29.122-.032h-1.948c-.063 7.889-3.047 15.24-8.608 20.911-4.995 5.038-11.498 8.174-18.598 8.998v1.964c7.634-.824 14.608-4.151 19.98-9.568 5.875-5.988 9.111-13.909 9.173-22.305z"/></symbol><symbol id="icon-company-2" viewBox="0 0 146 32"><path fill="var(--color1, #979797)" d="M103.88 9.78h-3.718V0h-3.276v30.576c1.313.814 4.176 1.439 6.847 1.439 6.051 0 10.995-3.633 10.995-10.812 0-6.888-4.84-11.422-10.847-11.422zm-.265 19.401c-1.108 0-2.789-.218-3.453-.581V12.614h3.497c4.177 0 7.689 3.052 7.689 8.487 0 4.927-2.892 8.08-7.732 8.08zM145.777 20.694c0-6.685-2.848-10.914-8.19-10.914-5.121 0-8.545 4.447-8.545 10.914 0 6.191 3.291 11.306 9.917 11.306 2.361 0 4.914-.668 6.744-1.889l-1.062-2.34c-1.417.814-3.203 1.511-5.151 1.511-4.486 0-6.936-3.124-7.024-7.644h13.297v-.945h.014zm-13.253-1.308c.044-3.56 2.052-6.467 5.254-6.467 3.335 0 4.9 2.906 4.943 6.467h-10.197zM90.967 17.017c0-5.072-2.848-7.005-7.217-7.005H69.937V-.001h-3.276v9.606H63.34c-6.007 0-10.729 4.534-10.729 11.408 0 7.179 4.767 10.812 10.818 10.812 2.671 0 5.195-.625 6.508-1.439V12.453l13.135.087c2.627 0 4.619 1.439 4.619 4.665v1.352l-3.881.131c-2.14.087-3.763.32-5.195 1.032-2.14.988-3.527 2.921-3.527 5.74 0 4.084 2.863 6.554 6.7 6.554 2.627 0 4.693-1.032 6.331-2.601L88.754 32h2.893c-.266-.959-.679-3.488-.679-7.659v-7.324zM66.676 28.425c-.989.363-1.933.581-3.055.581-4.855 0-7.615-3.139-7.615-8.08 0-5.435 3.335-8.487 7.512-8.487h3.158v15.985zm21.015-1.991c-.989 1.032-2.819 2.776-5.446 2.776-2.406 0-3.852-1.613-3.852-3.953 0-1.395.649-2.601 1.859-3.27.93-.494 2.022-.77 3.852-.814l3.586-.131v5.391zM5.136 29.064c-1.107 0-1.859-.494-1.859-2.238V0H.001v27.858c0 2.558 1.505 4.127 4.176 4.127.974 0 2.199-.218 3.055-.625l-.767-2.616c-.31.145-.974.32-1.328.32zM18.843 9.606c-5.121 0-8.545 4.447-8.545 10.914 0 6.191 3.291 11.306 9.917 11.306 2.361 0 4.914-.668 6.744-1.889l-1.063-2.34c-1.417.814-3.202 1.599-5.151 1.599-4.486 0-6.936-3.037-7.025-7.557h13.326V20.52c0-6.685-2.863-10.914-8.205-10.914zm-5.076 9.78c.044-3.56 2.051-6.467 5.254-6.467 3.335 0 4.9 2.906 4.944 6.467H13.767zM42.386 9.926c-2.715 0-4.944 1.555-7.261 3.531l-.28-2.485h-3.202v20.999h3.291V16.073c1.963-1.744 4.324-3.183 6.685-3.183 2.981 0 3.911 2.499 3.911 5.682l.103 13.413h2.76V17.38c-.015-5.348-2.715-7.455-6.007-7.455zM124.911 28.905c-1.107 0-1.772-.494-1.772-2.238V0h-2.98v27.887c0 2.558 1.284 4.04 3.955 4.04.974 0 2.096-.276 2.937-.669l-.767-2.63c-.31.116-1.019.276-1.372.276z"/></symbol><symbol id="icon-company-3" viewBox="0 0 24 32"><path fill="var(--color1, #979797)" d="M22.953 23.029a5.09 5.09 0 00-3.608-1.492h-.198l-1.826-8.575a6.421 6.421 0 002.428-1.537 6.586 6.586 0 00-.811-10.035 6.586 6.586 0 00-7.213-.284 6.582 6.582 0 00-1.596 9.94l-4.588 5.192a3.807 3.807 0 00-1.692-.423 3.653 3.653 0 00-1.703 6.888 3.659 3.659 0 004.434-.808 3.655 3.655 0 00.276-4.499l4.588-5.167a6.642 6.642 0 003.653 1.114c.178 0 .331-.023.49-.023l1.826 8.575a5.02 5.02 0 00-1.716 1.133 5.113 5.113 0 00.766 7.87c.841.562 1.83.863 2.842.863a5.022 5.022 0 003.608-1.492 5.108 5.108 0 00.043-7.242zM5.182 20.827a1.891 1.891 0 01-1.337.557 1.875 1.875 0 01-1.337-.557 1.906 1.906 0 011.337-3.253 1.898 1.898 0 011.893 1.893 1.893 1.893 0 01-.556 1.359zm7.127-11.27a3.946 3.946 0 01-1.158-2.784 3.852 3.852 0 011.157-2.784 3.946 3.946 0 012.784-1.158 3.852 3.852 0 012.784 1.157 3.945 3.945 0 01.853 4.292 3.944 3.944 0 01-3.637 2.434 3.857 3.857 0 01-2.784-1.159zm9.197 19.265a3.049 3.049 0 01-2.159.889 3.011 3.011 0 01-2.16-.891 3.064 3.064 0 01-.664-3.33 3.036 3.036 0 012.825-1.878 3.011 3.011 0 012.16.892 3.08 3.08 0 010 4.32l-.001-.001z"/></symbol><symbol id="icon-company-4" viewBox="0 0 55 32"><path fill="var(--color1, #979797)" d="M17.058 15.296c-.805.245-3.452 7.11-4.842 10.909 2.496 1.724 5.1 3.272 7.502 4.324 4.822 2.109 6.328 1.252 9.322-.101 2.146-.969 5.512-3.235 8.46-5.387-3.581-2.351-8.088-5.198-10.667-6.415-4.835-2.287-8.61-3.684-9.776-3.33zM19.043 11.699s4.4-2.587 11.457-5.107c3.782-1.35 7.544-2.017 10.222-2.343-1.51-.427-2.922-.821-3.987-1.116-3.37-.929-8.224-2.074-12.288-2.702-.191.973-.66 2.563-1.842 4.848-1.601 3.085-3.562 6.419-3.562 6.419zM21.201.047c-3.694-.254-4.26.584-4.977 1.084-1.897 1.039-9.759 5.736-13.568 9.055-3.61 3.144-3.008 5.11-1.326 7.087 1.362 1.601 3.749 3.5 7.463 6.406.169.133.34.265.514.4 1.492-3.311 4.742-10.49 6.34-13.856 1.872-3.949 4.416-8.279 5.554-10.176zM53.496 8.315c-1.29-.674-2.44-1.037-3.44-1.364a167.12 167.12 0 00-3.495-1.036c-2.947.387-7.833 1.124-12.568 2.258-4.903 1.176-13.139 5.175-13.139 5.175s10.411 3.35 20.167 9.02c.326-.259.627-.5.902-.725 3.025-2.478 10.71-8.859 12.35-11.649.404-.691.062-1.242-.777-1.68z"/><path fill="var(--color2, #fff)" d="M33.997 8.172c4.73-1.133 9.618-1.869 12.563-2.258a873.237 873.237 0 00-5.837-1.665c-2.676.326-6.44.993-10.221 2.343-7.059 2.52-11.459 5.107-11.459 5.107s1.962-3.335 3.563-6.418c1.184-2.285 1.65-3.876 1.843-4.849A51.635 51.635 0 0023.027.23a32.306 32.306 0 00-1.822-.184c-1.14 1.896-3.684 6.226-5.553 10.178-1.596 3.365-4.849 10.545-6.341 13.855.94.723 1.917 1.438 2.912 2.125 1.39-3.799 4.036-10.664 4.842-10.909 1.166-.354 4.94 1.043 9.777 3.328 2.579 1.218 7.087 4.065 10.666 6.416a118.854 118.854 0 003.521-2.673c-9.757-5.67-20.165-9.02-20.165-9.02s8.229-4 13.136-5.175z"/></symbol><symbol id="icon-company-5" viewBox="0 0 33 32"><path fill="var(--color1, #979797)" d="M26.775 4.597l1.144 6.125c.952.018 1.717.768 1.717 1.69a1.67 1.67 0 01-.693 1.348l2.809 5.574c.104-.02.212-.031.322-.031.164 0 .319.031.468.073a15.55 15.55 0 00.397-3.466c0-4.711-2.121-8.942-5.489-11.856a1.64 1.64 0 01-.675.542zm-11.958-.761a1.75 1.75 0 011.647-1.121c.76 0 1.405.468 1.649 1.121l6.36-.901c.038-.282.155-.536.323-.75A16.82 16.82 0 0016.471 0c-3.112 0-5.94.795-8.344 2.155.185.224.304.495.344.782l6.346.899zm10.035 20.457l5.629-3.007a1.53 1.53 0 01-.052-.392c0-.532.269-1 .683-1.29l-2.797-5.551a1.914 1.914 0 01-.629.042l-3.306 9.822c.179.098.34.224.471.376zm-23.678-4.96l2.812-5.574a1.673 1.673 0 01-.696-1.35c0-.926.767-1.676 1.721-1.693l1.141-6.127a1.65 1.65 0 01-.682-.561C2.057 6.995-.001 11.302-.001 15.91c0 1.191.14 2.35.397 3.467a1.603 1.603 0 01.777-.044zm3.869-5.23c-.148 0-.293-.018-.428-.053l-2.799 5.549c.42.289.695.761.695 1.296 0 .138-.019.272-.055.401l5.593 2.996c.132-.151.293-.278.474-.376l-3.284-9.823a1.82 1.82 0 01-.195.011zM21.8 25.053c.064-.302.211-.58.424-.802l-5.085-6.716a1.652 1.652 0 01-.668.138c-.228 0-.443-.044-.64-.127l-5.15 6.712c.206.221.354.493.416.794h10.702zm-6.929-19.94a1.63 1.63 0 01-.154-.609l-6.301-.893a1.645 1.645 0 01-1.577 1.126l-.005-.001-1.137 6.102c.199.078.383.191.542.334l8.631-6.059zM30.792 21.89l-5.601 2.992c.051.16.081.331.081.508 0 .936-.785 1.694-1.755 1.694-.375 0-.722-.116-1.008-.31L17.878 31c.139.224.22.479.234.742 5.996-.574 11.045-4.256 13.402-9.354a1.65 1.65 0 01-.721-.499zM21.8 25.728H11.098a1.61 1.61 0 01-.229.553l4.666 4.232a1.681 1.681 0 011.866-.003l4.63-4.225a1.652 1.652 0 01-.23-.558zm-6.975-9.647c0-.056.003-.113.009-.17l-8.277-2.65a1.74 1.74 0 01-.656.624l3.283 9.822c.321-.035.645.017.939.151l5.138-6.7a1.547 1.547 0 01-.436-1.077zm3.063-.807l8.257-2.647a1.696 1.696 0 01-.016-.213c0-.247.057-.482.156-.694l-8.636-6.062a1.78 1.78 0 01-.835.413l.004 8.458a1.65 1.65 0 011.069.746zm8.48-2.01l-8.259 2.647a1.545 1.545 0 01-.407 1.225l5.083 6.717c.292-.131.614-.181.932-.145l3.306-9.818a1.734 1.734 0 01-.655-.626zm-19.571-.855c0 .072-.006.145-.015.216l8.273 2.649a1.631 1.631 0 011.067-.747l-.004-8.456a1.76 1.76 0 01-.837-.414l-8.638 6.062c.101.216.153.451.154.69zm3.596 14.363a1.786 1.786 0 01-1.013.312c-.968 0-1.753-.758-1.753-1.694 0-.177.028-.349.081-.511l-5.565-2.983c-.19.225-.437.395-.715.493 2.356 5.098 7.403 8.779 13.401 9.354.014-.27.096-.522.231-.74l-4.667-4.231zm16.84-15.931l-1.138-6.105a1.639 1.639 0 01-1.565-1.128l-6.316.896a1.62 1.62 0 01-.154.61l8.632 6.059c.157-.14.338-.255.541-.332z"/></symbol><symbol id="icon-company-6" viewBox="0 0 46 32"><path d="M0 0h45.798v32H0V0z"/></symbol><symbol id="icon-company-7" viewBox="0 0 43 32"><path fill="var(--color1, #979797)" d="M5.524 14.613c.212 2.789 2.373 3.743 4.851 3.743 2.089 0 3.435-.741 3.435-1.977 0-1.306-1.31-1.518-3.01-1.836l-4.072-.706c-3.647-.671-6.197-2.718-6.197-6.6 0-4.518 3.541-7.236 9.1-7.236 6.162 0 9.49 3 9.597 7.942l-5.524.106c-.177-2.294-1.841-3.353-4.143-3.353-1.983 0-3.116.776-3.116 2.012 0 1.024.85 1.412 2.231 1.657l4.214.741c4.674.812 6.799 3.248 6.799 6.883 0 4.73-4.108 7.095-9.313 7.095-6.055 0-10.375-2.93-10.375-8.295l5.523-.177zM31.798 23.084c-6.48 0-11.58-4.695-11.58-11.542S25.317 0 31.798 0s11.579 4.695 11.579 11.542-5.099 11.542-11.579 11.542zm0-17.79c-3.293 0-5.382 2.471-5.382 6.247s2.089 6.247 5.382 6.247c3.293 0 5.382-2.471 5.382-6.247s-2.089-6.247-5.382-6.247zM12.299 28.505v-4.163h1.867v7.515h-1.627l-3.255-4.449v4.449H7.417v-7.515h1.94l2.942 4.163zM26.313 31.857a3.187 3.187 0 01-.311-1.443c-.062-.859-.431-1.049-1.113-1.049h-1.354v2.493h-1.998v-7.515h3.805c1.95 0 2.92.921 2.92 2.385.032.465-.116.925-.414 1.284s-.723.591-1.187.648c.361.042.694.215.937.485s.377.62.379.982c.108 1.121.143 1.455.395 1.729h-2.058zm-1.328-4.055c.862 0 1.293-.215 1.293-.906 0-.608-.431-.93-1.293-.93h-1.448v1.837h1.448zM28.652 28.1a3.757 3.757 0 011.099-2.789 3.786 3.786 0 012.791-1.112c2.216 0 3.506 1.205 3.674 3.078l-1.974.072a1.493 1.493 0 00-1.064-1.295 1.513 1.513 0 00-.587-.055c-1.185 0-1.843.823-1.843 2.099 0 1.312.694 2.183 1.998 2.183a1.722 1.722 0 001.6-.871h-1.662v-1.455h3.59v3.901h-1.771v-.835a2.388 2.388 0 01-2.19.978c-2.08.001-3.66-1.573-3.66-3.899zM41.18 24.342h2.19l-2.894 4.664v2.851h-1.974v-2.851l-2.894-4.664h2.261l1.699 2.708 1.611-2.708zM20.785 30.187h-3.829v-1.3h2.955v-1.646h-2.955v-1.227h3.829v-1.67h-5.827v7.513h5.827v-1.67zM6.635 30.187H2.806v-1.3h2.955v-1.646H2.806v-1.227h3.829v-1.67H.808v7.513h5.827v-1.67z"/></symbol><symbol id="icon-company-8" viewBox="0 0 32 32"><path fill="var(--color1, #979797)" d="M31.589 15.605a47.654 47.654 0 00-3.438-5.006l-.031-.04-.011-.012c-.063-.079-.226-.28-.287-.359-.57-.781-1.24-7.039-1.318-7.5-.093-.543-.249-1.108-1.036-1.193-.639-.067-1.585-.173-2.63-.226-.483-.024-.734.236-.86.475-.087.163-.125.35-.129.535-.014.802.003 1.194.003 1.293a.184.184 0 01-.003.033.245.245 0 01-.082.138c-.09.075-.222.067-.314-.004-.496-.377-3.081-2.338-4.508-3.224a2.017 2.017 0 00-.207-.106c-.521-.234-1.13-.242-1.626.044-.034.02-.069.041-.102.064C14.539.812 6.486 5.385.39 15.559c0 0-.378.531-.095 1.028.275.572 2.937.734 3.363.783.481.05.478.444.478.444.05 4.175.123 6.203.803 13.284 0 0 .109.739.84.775.295.015 1.391-.049 4.314-.114a.203.203 0 00.222-.23c-.279-2.89-.369-5.391-.376-5.536-.007-.103-.101-.259-.197-.298-1.078-.617-1.719-1.696-1.729-2.938-.082-5.722.268-10.114.268-10.114s.034-.61.569-.561c.535.049.5.648.5.648-.192 2.464-.267 6.907-.267 6.907s0 .844.809.843c.809-.001.809-.843.809-.843-.024-3.477.268-6.97.268-6.97s0-.592.57-.592c.31 0 .429.214.475.385a.84.84 0 01.022.282c-.237 3.01-.263 6.89-.263 6.89s0 .844.809.843c.809-.001.806-.912.806-.912-.014-2.882.27-6.894.27-6.894.024-.312.181-.584.562-.588.476.015.512.471.504.588-.253 3.129-.26 7.924-.249 9.978a3.45 3.45 0 01-1.643 3.044.312.312 0 00-.136.295c.067 1.902.226 4.012.364 5.523a.204.204 0 00.187.193c.807 0 2.358-.009 3.331-.009 1.562 0 2.186.009 3.333.026.129 0 .191-.095.201-.226.295-2.738.399-4.72.414-4.893.018-.195-.223-.233-.223-.233-.358-.049-1.197-.148-1.91-.265s-.739-.928-.739-.928c-.602-8.54 3.905-13.863 3.905-13.863s.449-.591 1.07-.359c.549.204.694 1.788.701 1.881.603 7.071-.078 15.316-.471 18.682-.015.137.049.246.173.274.155.026 2.862.116 3.108.089a.97.97 0 00.86-.817c.958-6.615.813-13.251.813-13.251a.487.487 0 01.444-.444l2.594-.278c.34-.05.629-.185.78-.478a1.06 1.06 0 00-.038-1.001z"/></symbol><symbol id="icon-company-9" viewBox="0 0 32 32"><path fill="var(--color1, #979797)" d="M32 16.05a16.004 16.004 0 01-9.928 14.753A16 16 0 1132 16.05zm-16-.08h9.79c.56 0 .78-.11.74-.73a9.385 9.385 0 00-.93-3.66 10.334 10.334 0 00-10.24-6.1 10.613 10.613 0 00-9.86 9.66c0 .62.14.85.8.85 3.2.01 6.45.01 9.69.01l.01-.03z"/></symbol><symbol id="icon-company-10" viewBox="0 0 32 32"><path d="M0 0h32v32H0V0z"/></symbol><symbol id="icon-company-11" viewBox="0 0 32 32"><path fill="var(--color1, #979797)" d="M16.068 2.091a13.83 13.83 0 0112.786 8.543 13.843 13.843 0 01-3 15.082 13.839 13.839 0 11-9.786-23.624zm0 2.954a10.94 10.94 0 00-10.88 10.88c.004.846.107 1.689.307 2.511h12.226v-1.839l4.188 3.292-4.188 3.292v-1.839H6.628a10.871 10.871 0 0019.103-.365 10.865 10.865 0 00.91-7.56H15.313v1.839l-2.086-1.645-2.099-1.643 2.099-1.645 2.093-1.647v1.839h10.182a10.881 10.881 0 00-9.434-5.47z"/></symbol><symbol id="icon-company-12" viewBox="0 0 32 32"><path fill="var(--color1, #979797)" d="M23.267 24.894c-1.012 1.024-2.02 2.054-3.037 3.071-1.222 1.221-2.475 2.443-3.687 3.678-.289.295-.428.287-.715 0A4545.863 4545.863 0 003.962 19.861c-.637-.631-1.258-1.278-1.915-1.886-.279-.26-.234-.388.027-.611 2.857-2.495 6.129-4.176 9.849-4.866 6.839-1.27 12.957.328 18.301 4.814.333.279.348.423.024.727-2.367 2.231-4.872 4.252-7.96 5.419-2.945 1.115-5.895 1.069-8.829-.032a5.954 5.954 0 01-2.915-2.226c-1.096-1.615-.941-3.614.411-5.03 1.203-1.26 2.748-1.832 4.428-2.058a7.792 7.792 0 013.677.319 3.918 3.918 0 011.797 1.212c.884 1.092.773 2.53-.321 3.413-1.333 1.069-2.866 1.391-4.533 1.018a2.517 2.517 0 01-1.388-.825c-.353-.405-.814-.458-1.154-.182s-.368.777 0 1.209c.676.786 1.576 1.173 2.568 1.341 2.025.345 3.942.04 5.65-1.147 2.269-1.579 2.313-4.24.119-5.929-1.425-1.101-3.089-1.432-4.845-1.464-2.4-.043-4.646.498-6.607 1.932-3.174 2.324-3.222 6.198-.124 8.627 1.568 1.229 3.391 1.819 5.344 2.087 2.508.351 5.063.076 7.439-.8.082-.031.16-.092.266-.031z"/><path fill="var(--color1, #979797)" d="M.693 16.571a1.523 1.523 0 01-.565-.513c-.144-.191.089-.286.192-.389C4.742 11.276 9.164 6.89 13.586 2.513c.753-.745 1.527-1.461 2.261-2.231.305-.33.458-.223.721.037a3590.869 3590.869 0 0015.398 15.293c.163.162.469.305.133.599-.241.214-.377.478-.786.153a23.91 23.91 0 00-11.117-4.851 24.639 24.639 0 00-14.023 1.765 24.128 24.128 0 00-5.159 3.077c-.101.076-.208.144-.315.217z"/></symbol><symbol id="icon-FB" viewBox="0 0 32 32"><path fill="var(--color2, #fff)" opacity=".3" d="M29.091 0H2.909A2.908 2.908 0 000 2.909v26.182A2.908 2.908 0 002.909 32h14.545V18.909H13.09v-4.364h4.364v-2.343c0-4.436 2.161-6.384 5.849-6.384 1.766 0 2.7.131 3.142.191v4.173H23.93c-1.565 0-2.112.826-2.112 2.499v1.865h4.588l-.623 4.364h-3.965v13.091h7.273A2.908 2.908 0 0032 29.092V2.91A2.91 2.91 0 0029.091.001z"/></symbol><symbol id="icon-features-1" viewBox="0 0 32 32"><path fill="var(--color2, #fff)" d="M16.043 12.359c-1.246 0-2.26 1.014-2.26 2.26s1.014 2.26 2.26 2.26 2.26-1.014 2.26-2.26a2.263 2.263 0 00-2.26-2.26zm-.001 5.682c-1.886 0-3.421-1.535-3.421-3.421s1.535-3.421 3.421-3.421 3.421 1.535 3.421 3.421-1.535 3.421-3.421 3.421zM19.752 23.307c.257 0 .467.209.467.467v4.291h1.536v-4.311a3.403 3.403 0 00-3.397-3.401l-4.662-.016a3.41 3.41 0 00-3.404 3.405v4.323h1.536v-4.291a.467.467 0 11.934 0v4.291h6.521v-4.291c0-.258.21-.467.467-.467zm-9.494 5.92c-.62 0-1.125-.505-1.125-1.125v-4.358a4.57 4.57 0 014.564-4.565l4.663.015a4.566 4.566 0 014.556 4.561v4.358c0 .624-.494 1.113-1.125 1.113H10.258zM10.002 3.382c-1.246 0-2.26 1.014-2.26 2.261s1.014 2.26 2.26 2.26c1.246 0 2.26-1.014 2.26-2.26s-1.014-2.261-2.26-2.261zm.001 5.682c-1.886 0-3.421-1.535-3.421-3.421s1.534-3.421 3.421-3.421c1.886 0 3.421 1.535 3.421 3.421s-1.535 3.421-3.421 3.421zM4.236 20.145c-.62 0-1.125-.505-1.125-1.125v-4.358a4.57 4.57 0 014.564-4.565l4.667.001c.335 0 .657.035.983.108a.58.58 0 11-.252 1.133 3.396 3.396 0 00-.731-.08l-4.668-.001a3.408 3.408 0 00-3.404 3.404v4.323h1.536v-4.291a.467.467 0 11.934 0v4.291h2.381a.58.58 0 010 1.161H4.234zM22.064 3.382c-1.246 0-2.26 1.014-2.26 2.261s1.014 2.26 2.26 2.26c1.246 0 2.26-1.014 2.26-2.26s-1.014-2.261-2.26-2.261zm.001 5.682c-1.887 0-3.421-1.535-3.421-3.421s1.534-3.421 3.421-3.421c1.886 0 3.421 1.535 3.421 3.421s-1.535 3.421-3.421 3.421zM22.928 20.145a.58.58 0 010-1.161h2.381v-4.291a.467.467 0 11.934 0v4.291h1.536v-4.322c0-.907-.355-1.762-.999-2.405s-1.498-.999-2.405-.999l-4.664.002c-.249 0-.477.025-.72.079a.585.585 0 01-.693-.44.582.582 0 01.44-.693c.323-.072.641-.107.972-.107l4.664-.002c1.217 0 2.363.475 3.226 1.338s1.338 2.009 1.338 3.226v4.359c0 .62-.504 1.125-1.125 1.125h-4.887z"/></symbol><symbol id="icon-features-2" viewBox="0 0 32 32"><path fill="var(--color2, #fff)" d="M28.778 28.855a.752.752 0 01-.542-.231l-3.286-3.992c-.3-.308-.3-.808 0-1.115s.784-.308 1.084 0l3.286 3.992c.3.308.3.807 0 1.115a.752.752 0 01-.542.231z"/><path fill="var(--color2, #fff)" d="M16.401 4.172c-7.323 0-12.638 5.188-12.638 12.335 0 6 5.669 10.881 12.638 10.881 5.834 0 11.148-5.186 11.148-10.881 0-6.801-5.001-12.335-11.148-12.335zm.001 24.722c-7.819 0-14.18-5.557-14.18-12.387 0-8.02 5.964-13.841 14.18-13.841 6.997 0 12.69 6.209 12.69 13.841 0 6.483-6.049 12.387-12.69 12.387z"/><path fill="var(--color2, #fff)" d="M15.786 10.356c-1.457 0-2.642 1.137-2.642 2.535s1.185 2.534 2.642 2.534c1.456 0 2.641-1.136 2.641-2.534s-1.185-2.535-2.641-2.535zm0 6.539c-2.301 0-4.173-1.796-4.173-4.004s1.873-4.005 4.173-4.005c2.301 0 4.173 1.796 4.173 4.005s-1.872 4.004-4.173 4.004zm-9.796 2.86c-.423 0-.766-.329-.766-.735 0-1.983 1.681-3.596 3.748-3.596 1.438 0 2.727.77 3.363 2.009.187.364.031.805-.349.984s-.839.029-1.025-.335c-.376-.733-1.139-1.188-1.989-1.188-1.222 0-2.216.954-2.216 2.126 0 .406-.343.735-.766.735z"/><path fill="var(--color2, #fff)" d="M21.755 22.953a.775.775 0 01-.766-.784c0-2.934-2.33-5.321-5.195-5.321s-5.195 2.387-5.195 5.321c0 .433-.343.784-.766.784s-.766-.351-.766-.784c0-3.799 3.018-6.889 6.727-6.889s6.727 3.09 6.727 6.889a.775.775 0 01-.766.784zM22.522 12.903a.972.972 0 10-.001 1.945.972.972 0 00.001-1.945zm-.001 3.528c-1.413 0-2.563-1.148-2.563-2.558a2.562 2.562 0 015.126 0 2.563 2.563 0 01-2.563 2.558z"/><path fill="var(--color2, #fff)" d="M8.976 13.568c-.517 0-.938.407-.938.908s.421.909.938.909c.517 0 .939-.408.939-.909s-.422-.908-.939-.908zm0 3.3c-1.363 0-2.471-1.074-2.471-2.393s1.108-2.392 2.471-2.392 2.472 1.073 2.472 2.392-1.109 2.393-2.472 2.393zm16.622 2.888a.755.755 0 01-.767-.742c0-1.183-.995-2.147-2.217-2.147-.851 0-1.614.46-1.991 1.2-.186.368-.646.52-1.026.338s-.537-.626-.349-.994c.636-1.251 1.926-2.029 3.366-2.029 2.068 0 3.75 1.629 3.75 3.631 0 .41-.343.742-.766.742z"/></symbol><symbol id="icon-features-3" viewBox="0 0 32 32"><path fill="var(--color2, #fff)" d="M16.017 6.792a6.236 6.236 0 00-6.214 6.214c.006 3.419 2.793 6.207 6.214 6.213 3.42-.006 6.207-2.793 6.213-6.213-.006-3.42-2.793-6.207-6.214-6.213h.001zm0 13.619c-4.083 0-7.404-3.322-7.405-7.404.001-4.083 3.322-7.406 7.405-7.406s7.404 3.322 7.406 7.406c-.001 4.083-3.324 7.404-7.406 7.404zm0 .81c.094 0 .188.023.271.066l2.257 1.156 1.378-2.13a.597.597 0 01.47-.272l2.533-.128.126-2.532a.6.6 0 01.271-.471l2.131-1.378-1.157-2.257a.594.594 0 01.001-.543l1.156-2.258-2.13-1.377a.593.593 0 01-.271-.471l-.127-2.533-2.533-.128a.595.595 0 01-.47-.272l-1.378-2.13-2.258 1.157a.592.592 0 01-.543 0l-2.258-1.157-1.377 2.13a.597.597 0 01-.47.272l-2.533.127-.126 2.534a.599.599 0 01-.273.47l-2.13 1.377 1.157 2.258a.597.597 0 010 .543l-1.157 2.257 2.131 1.378a.6.6 0 01.273.47l.126 2.533 2.533.128c.191.01.367.111.47.272l1.377 2.13 2.258-1.157a.587.587 0 01.271-.066zm-5.979 4.278a.589.589 0 01.406.234l1.679 2.241 2.865-4.962-1.435.736a.594.594 0 01-.772-.207l-1.503-2.326-1.691-.084-2.331 4.035 2.783.332zm9.873 2.478l1.677-2.243a.586.586 0 01.407-.234l2.781-.332-2.328-4.036-1.692.085-1.503 2.326a.594.594 0 01-.771.206l-1.436-.735 2.865 4.963zm-7.726 1.675a.597.597 0 01-.477-.239l-2.066-2.761-3.424-.409a.597.597 0 01-.445-.889l2.508-4.343a.59.59 0 01-.337-.497l-.137-2.768-2.327-1.504a.594.594 0 01-.207-.772l1.263-2.464-1.264-2.465a.592.592 0 01.208-.771l2.327-1.505.137-2.766a.596.596 0 01.566-.565l2.767-.14 1.504-2.325a.592.592 0 01.771-.207l2.465 1.263 2.465-1.263a.594.594 0 01.771.207l1.503 2.325 2.768.14a.596.596 0 01.565.564l.138 2.767 2.326 1.505a.593.593 0 01.207.771l-1.263 2.465 1.263 2.464a.595.595 0 01-.206.772l-2.327 1.504-.138 2.767a.592.592 0 01-.337.498l2.508 4.343c.1.174.105.385.016.565s-.262.3-.462.324l-3.426.409-2.064 2.761a.593.593 0 01-.477.239.608.608 0 01-.517-.298l-3.315-5.743-3.315 5.743a.59.59 0 01-.481.297l-.035.001z"/></symbol><symbol id="icon-Inst" viewBox="0 0 32 32"><path fill="var(--color2, #fff)" opacity=".3" d="M0 32h32V0H0v32zM28.444 5.333a1.779 1.779 0 11-3.557-.001 1.779 1.779 0 013.557.001zM16 7.111a8.89 8.89 0 010 17.778 8.89 8.89 0 010-17.778zM10.667 16a5.333 5.333 0 1010.666 0 5.333 5.333 0 00-10.666 0z"/></symbol><symbol id="icon-line-1" viewBox="0 0 1186 32"><path fill="var(--color2, #fff)" opacity=".3" d="M0 32h32V0H0v32zM28.444 5.333a1.779 1.779 0 11-3.557-.001 1.779 1.779 0 013.557.001zM16 7.111a8.89 8.89 0 010 17.778 8.89 8.89 0 010-17.778zM10.667 16a5.333 5.333 0 1010.666 0 5.333 5.333 0 00-10.666 0z"/></symbol><symbol id="icon-line-2" viewBox="0 0 1186 32"><path fill="var(--color2, #fff)" opacity=".3" d="M0 32h32V0H0v32zM28.444 5.333a1.779 1.779 0 11-3.557-.001 1.779 1.779 0 013.557.001zM16 7.111a8.89 8.89 0 010 17.778 8.89 8.89 0 010-17.778zM10.667 16a5.333 5.333 0 1010.666 0 5.333 5.333 0 00-10.666 0z"/></symbol><symbol id="icon-line-3" viewBox="0 0 1186 32"><path fill="var(--color2, #fff)" opacity=".3" d="M0 32h32V0H0v32zM28.444 5.333a1.779 1.779 0 11-3.557-.001 1.779 1.779 0 013.557.001zM16 7.111a8.89 8.89 0 010 17.778 8.89 8.89 0 010-17.778zM10.667 16a5.333 5.333 0 1010.666 0 5.333 5.333 0 00-10.666 0z"/></symbol><symbol id="icon-line-4" viewBox="0 0 1186 32"><path fill="var(--color2, #fff)" opacity=".3" d="M0 32h32V0H0v32zM28.444 5.333a1.779 1.779 0 11-3.557-.001 1.779 1.779 0 013.557.001zM16 7.111a8.89 8.89 0 010 17.778 8.89 8.89 0 010-17.778zM10.667 16a5.333 5.333 0 1010.666 0 5.333 5.333 0 00-10.666 0z"/></symbol><symbol id="icon-linkedin" viewBox="0 0 32 32"><path fill="var(--color2, #fff)" opacity=".3" d="M3.556 0h24.889a3.555 3.555 0 013.556 3.556v24.889a3.555 3.555 0 01-3.556 3.556H3.556A3.555 3.555 0 010 28.445V3.556A3.555 3.555 0 013.556 0zM6.18 22.645a2.244 2.244 0 004.488.002v-7.959a2.244 2.244 0 00-4.488-.002v7.959zm2.162-12.482c-1.371 0-2.286-.914-2.286-2.133s.914-2.133 2.437-2.133c1.371 0 2.286.914 2.286 2.133s-.914 2.133-2.437 2.133zm13.983 12.555a2.172 2.172 0 004.342 0v-4.631c0-3.906-1.737-5.643-3.904-5.643-3.406 0-3.908 2.244-3.908 2.244a2.244 2.244 0 10-4.488 0v8.03c0 1.198.972 2.171 2.171 2.171h.144a2.172 2.172 0 002.171-2.171v-4.631c0-2.025 1.447-2.087 1.881-2.087s1.591.206 1.591 2.087v4.631z"/></symbol><symbol id="icon-logo-footer" viewBox="0 0 121 32"><path fill="var(--color2, #fff)" d="M6.127 31.373V5.876c1.18-.513 3.035-.799 4.778-.799 1.124 0 2.192.114 3.092.342l1.18-5.191C14.278.057 13.097 0 11.748 0 7.251 0 2.923.913 0 2.168v29.205h6.127zM32.04 32c4.272 0 8.713-.97 10.905-2.168V10.438C42.945 2.852 38.561 0 31.309 0c-4.047 0-8.151 1.084-10.568 2.168l1.574 4.278c2.024-.97 5.509-1.882 8.375-1.882 3.879 0 6.408 1.369 6.408 5.248v1.939l-.45.026-.899.058c-8.676.598-16.807 2.39-16.807 10.526 0 6.046 4.385 9.64 13.097 9.64zm-.168-4.506c-4.665 0-7.139-1.996-7.139-5.248 0-5.141 5.449-5.908 11.232-6.266l1.134-.066v10.781c-.956.456-3.26.799-5.228.799zm24.958 3.879V.628h-6.183v30.745h6.183zM76.728 32c8.6 0 13.322-6.902 13.322-16.029S85.328 0 76.728 0c-8.6 0-13.322 6.845-13.322 15.971S68.128 32 76.728 32zm0-5.077c-4.778 0-7.139-4.392-7.139-11.009S71.95 4.962 76.728 4.962c4.778 0 7.139 4.335 7.139 10.952s-2.361 11.009-7.139 11.009zm25.858 4.45V5.933c1.237-.513 3.316-.913 5.565-.913 4.216 0 6.352 2.225 6.352 5.818v20.535h6.183V10.268c0-6.503-4.103-10.267-12.592-10.267-4.721 0-8.6.913-11.635 2.168v29.205h6.127z"/></symbol><symbol id="icon-logo-header" viewBox="0 0 122 32"><path d="M6.173 31.15V5.833c1.189-.51 3.058-.793 4.814-.793 1.133 0 2.209.113 3.115.34L15.291.226c-.906-.17-2.096-.227-3.455-.227-4.531 0-8.892.906-11.837 2.152v28.998h6.173zm26.11.623c4.304 0 8.779-.963 10.988-2.152V10.364c0-7.533-4.418-10.365-11.724-10.365-4.078 0-8.212 1.076-10.648 2.152l1.586 4.248c2.039-.963 5.55-1.869 8.439-1.869 3.908 0 6.457 1.359 6.457 5.211v1.926l-.454.026-.906.057c-8.741.594-16.934 2.373-16.934 10.451 0 6.004 4.418 9.572 13.196 9.572zm-.17-4.474c-4.701 0-7.193-1.982-7.193-5.211 0-5.104 5.491-5.866 11.317-6.221l1.143-.065v10.704c-.963.453-3.285.793-5.267.793zM57.26 31.15V.623h-6.23V31.15h6.23zm20.05.623c8.665 0 13.423-6.853 13.423-15.915S85.975 0 77.31 0 63.887 6.796 63.887 15.858c0 9.062 4.758 15.915 13.423 15.915zm0-5.04c-4.814 0-7.193-4.361-7.193-10.931S72.496 4.928 77.31 4.928s7.193 4.304 7.193 10.874-2.379 10.931-7.193 10.931zm26.053 4.417V5.89c1.246-.51 3.341-.906 5.607-.906 4.249 0 6.4 2.209 6.4 5.777V31.15h6.23V10.194c0-6.457-4.134-10.195-12.687-10.195-4.757 0-8.665.906-11.724 2.152v28.998h6.173z"/></symbol><symbol id="icon-twitter" viewBox="0 0 32 32"><path fill="var(--color2, #fff)" opacity=".3" d="M7.111 0h17.778A7.111 7.111 0 0132 7.111v17.778A7.111 7.111 0 0124.889 32H7.111A7.111 7.111 0 010 24.889V7.111A7.111 7.111 0 017.111 0zm17.867 12.19v-.61c.763-.61 1.524-1.371 2.137-2.288-.914.459-1.676.61-2.59.763.914-.608 1.676-1.371 1.98-2.437-.763.457-1.676.914-2.743 1.067-.763-.914-1.98-1.371-3.2-1.371a4.423 4.423 0 00-4.42 4.42c0 .252.046.457.088.642.034.151.065.288.065.424-3.657-.151-6.857-1.98-8.99-4.571-.457.61-.61 1.371-.61 2.133 0 1.524.761 2.743 1.98 3.81-.761-.153-1.371-.306-1.98-.61 0 2.133 1.524 3.81 3.504 4.267-.457.153-.763.153-1.22.153-.063 0-.153-.026-.258-.057a1.811 1.811 0 00-.504-.096c.61 1.676 2.133 3.047 4.114 3.047-1.524 1.067-3.506 1.829-5.486 1.829H5.778c1.98 1.218 4.267 1.98 6.704 1.98 8.076 0 12.496-6.706 12.496-12.496z"/></symbol></defs></svg>